<?xml version="1.0" standalone="no"?>
<!DOCTYPE svg PUBLIC "-//W3C//DTD SVG 20010904//EN"
 "http://www.w3.org/TR/2001/REC-SVG-20010904/DTD/svg10.dtd">
<svg version="1.0" xmlns="http://www.w3.org/2000/svg"
 width="256.000000pt" height="256.000000pt" viewBox="0 0 256.000000 256.000000"
 preserveAspectRatio="xMidYMid meet">

<g transform="translate(0.000000,256.000000) scale(0.100000,-0.100000)"
fill="#FFFFFF" stroke="none">
  <path d="M1199 2386 c-29 -20 -76 -94 -234 -368 -109 -189 -222 -383 -251
  -433 -29 -49 -125 -216 -214 -370 -89 -154 -204 -352 -255 -440 -224 -386
  -235 -407 -235 -455 0 -54 27 -102 72 -130 32 -20 53 -20 1203 -20 l1170 0 36
  24 c43 29 69 80 69 133 0 41 23 0 -508 913 -129 223 -325 560 -435 750 -110
  190 -209 356 -221 368 -51 58 -136 69 -197 28z"/>
</g>


<g transform="translate(0.000000,256.000000) scale(0.100000,-0.100000)"
fill="#ec1616" stroke="none">
<path d="M1199 2386 c-29 -20 -76 -94 -234 -368 -109 -189 -222 -383 -251
-433 -29 -49 -125 -216 -214 -370 -89 -154 -204 -352 -255 -440 -224 -386
-235 -407 -235 -455 0 -54 27 -102 72 -130 32 -20 53 -20 1203 -20 l1170 0 36
24 c43 29 69 80 69 133 0 41 23 0 -508 913 -129 223 -325 560 -435 750 -110
190 -209 356 -221 368 -51 58 -136 69 -197 28z m263 -491 c83 -143 206 -354
273 -470 445 -766 608 -1050 612 -1066 5 -18 -23 -19 -1060 -19 -586 0 -1068
3 -1070 8 -3 4 76 146 176 317 406 700 615 1059 705 1215 85 147 120 207 170
289 14 24 15 24 29 5 8 -10 82 -136 165 -279z"/>
</g>

<g transform="translate(0.000000,256.000000) scale(0.032000,-0.032000)"
fill="#000000" stroke="none">

<path d="M3714 4576 l-234 -234 0 -391 0 -391 -255 0 -255 0 0 -240 0 -240
253 -2 252 -3 3 -633 c1 -347 3 -632 5 -632 2 0 109 103 238 230 128 126 236
230 239 230 3 -1 111 -106 240 -235 l235 -234 5 637 5 637 256 3 c216 2 258 5
263 17 3 8 4 115 3 237 l-2 223 -262 3 -263 2 0 384 0 384 -238 241 c-130 133
-241 241 -246 241 -4 0 -113 -105 -242 -234z"/>
</g>

</svg>
