<?xml version="1.0" standalone="no"?>
<!DOCTYPE svg PUBLIC "-//W3C//DTD SVG 20010904//EN"
 "http://www.w3.org/TR/2001/REC-SVG-20010904/DTD/svg10.dtd">
<svg version="1.0" xmlns="http://www.w3.org/2000/svg"
 width="256.000000pt" height="256.000000pt" viewBox="0 0 256.000000 256.000000"
 preserveAspectRatio="xMidYMid meet">


<g transform="translate(0.000000,256.000000) scale(0.100000,-0.100000)"
fill="#FFFFFF" stroke="none">
  <path d="M1199 2386 c-29 -20 -76 -94 -234 -368 -109 -189 -222 -383 -251
  -433 -29 -49 -125 -216 -214 -370 -89 -154 -204 -352 -255 -440 -224 -386
  -235 -407 -235 -455 0 -54 27 -102 72 -130 32 -20 53 -20 1203 -20 l1170 0 36
  24 c43 29 69 80 69 133 0 41 23 0 -508 913 -129 223 -325 560 -435 750 -110
  190 -209 356 -221 368 -51 58 -136 69 -197 28z"/>
</g>

<g transform="translate(0.000000,256.000000) scale(0.100000,-0.100000)"
fill="#ec1616" stroke="none">
<path d="M1199 2386 c-29 -20 -76 -94 -234 -368 -109 -189 -222 -383 -251
-433 -29 -49 -125 -216 -214 -370 -89 -154 -204 -352 -255 -440 -224 -386
-235 -407 -235 -455 0 -54 27 -102 72 -130 32 -20 53 -20 1203 -20 l1170 0 36
24 c43 29 69 80 69 133 0 41 23 0 -508 913 -129 223 -325 560 -435 750 -110
190 -209 356 -221 368 -51 58 -136 69 -197 28z m263 -491 c83 -143 206 -354
273 -470 445 -766 608 -1050 612 -1066 5 -18 -23 -19 -1060 -19 -586 0 -1068
3 -1070 8 -3 4 76 146 176 317 406 700 615 1059 705 1215 85 147 120 207 170
289 14 24 15 24 29 5 8 -10 82 -136 165 -279z"/>
</g>

<g transform="translate(0.000000,256.000000) scale(0.022000,-0.022000)"
fill="#000000" stroke="none">
  <path d="M5358 6493 l-358 -357 0 -1733 c0 -953 2 -1733 4 -1733 2 0 164 159
  359 354 l355 354 353 -354 c195 -194 357 -354 362 -354 4 0 7 352 7 782 l0
  783 280 -280 280 -280 210 210 c115 115 210 214 210 220 0 5 -221 228 -490
  495 l-490 484 0 526 0 525 -358 358 c-196 196 -359 357 -362 357 -3 0 -166
  -161 -362 -357z"/>
</g>

</svg>
