<?xml version="1.0" standalone="no"?>
<!DOCTYPE svg PUBLIC "-//W3C//DTD SVG 20010904//EN"
 "http://www.w3.org/TR/2001/REC-SVG-20010904/DTD/svg10.dtd">
<svg version="1.0" xmlns="http://www.w3.org/2000/svg"
 width="256.000000pt" height="256.000000pt" viewBox="0 0 256.000000 256.000000"
 preserveAspectRatio="xMidYMid meet">

<g transform="translate(0.000000,256.000000) scale(0.100000,-0.100000)"
fill="#FFFFFF" stroke="none">
  <path d="M1199 2386 c-29 -20 -76 -94 -234 -368 -109 -189 -222 -383 -251
  -433 -29 -49 -125 -216 -214 -370 -89 -154 -204 -352 -255 -440 -224 -386
  -235 -407 -235 -455 0 -54 27 -102 72 -130 32 -20 53 -20 1203 -20 l1170 0 36
  24 c43 29 69 80 69 133 0 41 23 0 -508 913 -129 223 -325 560 -435 750 -110
  190 -209 356 -221 368 -51 58 -136 69 -197 28z"/>
</g>

<g transform="translate(0.000000,256.000000) scale(0.100000,-0.100000)"
fill="#ec1616" stroke="none">
<path d="M1199 2386 c-29 -20 -76 -94 -234 -368 -109 -189 -222 -383 -251
-433 -29 -49 -125 -216 -214 -370 -89 -154 -204 -352 -255 -440 -224 -386
-235 -407 -235 -455 0 -54 27 -102 72 -130 32 -20 53 -20 1203 -20 l1170 0 36
24 c43 29 69 80 69 133 0 41 23 0 -508 913 -129 223 -325 560 -435 750 -110
190 -209 356 -221 368 -51 58 -136 69 -197 28z m263 -491 c83 -143 206 -354
273 -470 445 -766 608 -1050 612 -1066 5 -18 -23 -19 -1060 -19 -586 0 -1068
3 -1070 8 -3 4 76 146 176 317 406 700 615 1059 705 1215 85 147 120 207 170
289 14 24 15 24 29 5 8 -10 82 -136 165 -279z"/>
</g>

<g transform="translate(0.000000,256.000000) scale(0.100000,-0.100000)"
fill="#000000" stroke="none">
<path d="M1195 1455 c-44 -36 -78 -68 -77 -72 4 -9 160 -133 167 -133 3 0 5
14 5 31 l0 32 52 -6 c132 -16 242 -112 297 -258 l10 -27 67 14 c37 8 69 16 71
18 2 1 -5 28 -16 58 -63 185 -230 319 -425 343 -53 7 -56 9 -56 36 0 16 -3 29
-7 28 -5 0 -44 -29 -88 -64z"/>
<path d="M911 1290 c-53 -57 -108 -167 -122 -245 -16 -84 -6 -187 26 -272 l27
-73 -22 -18 -23 -19 92 -36 c50 -21 97 -37 105 -37 9 0 15 19 19 58 4 31 9 79
13 105 l7 48 -27 -12 c-32 -15 -39 -9 -60 54 -36 109 -11 240 64 336 l39 49
-48 53 -49 54 -41 -45z"/>
<path d="M1670 859 c-41 -17 -86 -35 -100 -41 l-25 -9 28 -17 c15 -9 27 -19
27 -22 0 -3 -20 -28 -44 -55 -77 -89 -210 -136 -323 -116 -31 6 -57 10 -59 8
-7 -6 -44 -109 -44 -121 0 -33 189 -48 286 -22 112 30 214 98 279 186 37 50
38 51 62 35 14 -9 26 -15 28 -13 5 6 -28 218 -34 218 -3 0 -40 -14 -81 -31z"/>
</g>
</svg>
