<?xml version="1.0" standalone="no"?>
<!DOCTYPE svg PUBLIC "-//W3C//DTD SVG 20010904//EN"
 "http://www.w3.org/TR/2001/REC-SVG-20010904/DTD/svg10.dtd">
<svg version="1.0" xmlns="http://www.w3.org/2000/svg"
 width="256.000000pt" height="256.000000pt" viewBox="0 0 256.000000 256.000000"
 preserveAspectRatio="xMidYMid meet">

<g transform="translate(0.000000,256.000000) scale(0.100000,-0.100000)"
fill="#FFFFFF" stroke="none">
  <path d="M1199 2386 c-29 -20 -76 -94 -234 -368 -109 -189 -222 -383 -251
  -433 -29 -49 -125 -216 -214 -370 -89 -154 -204 -352 -255 -440 -224 -386
  -235 -407 -235 -455 0 -54 27 -102 72 -130 32 -20 53 -20 1203 -20 l1170 0 36
  24 c43 29 69 80 69 133 0 41 23 0 -508 913 -129 223 -325 560 -435 750 -110
  190 -209 356 -221 368 -51 58 -136 69 -197 28z"/>
</g>


<g transform="translate(0.000000,256.000000) scale(0.100000,-0.100000)"
fill="#ec1616" stroke="none">
<path d="M1199 2386 c-29 -20 -76 -94 -234 -368 -109 -189 -222 -383 -251
-433 -29 -49 -125 -216 -214 -370 -89 -154 -204 -352 -255 -440 -224 -386
-235 -407 -235 -455 0 -54 27 -102 72 -130 32 -20 53 -20 1203 -20 l1170 0 36
24 c43 29 69 80 69 133 0 41 23 0 -508 913 -129 223 -325 560 -435 750 -110
190 -209 356 -221 368 -51 58 -136 69 -197 28z m263 -491 c83 -143 206 -354
273 -470 445 -766 608 -1050 612 -1066 5 -18 -23 -19 -1060 -19 -586 0 -1068
3 -1070 8 -3 4 76 146 176 317 406 700 615 1059 705 1215 85 147 120 207 170
289 14 24 15 24 29 5 8 -10 82 -136 165 -279z"/>
</g>

<g transform="translate(0.000000,236.000000) scale(0.02000,-0.02000)"
fill="#000000" stroke="none">

<path d="M6290 7874 c-14 -3 -61 -14 -104 -25 -390 -98 -706 -474 -706 -837 0
-46 22 -254 50 -461 27 -207 113 -857 190 -1446 201 -1535 199 -1517 216
-1581 42 -165 141 -297 271 -361 67 -33 86 -38 168 -41 152 -7 246 30 348 136
99 105 144 224 176 464 11 84 61 462 111 841 49 378 131 996 180 1375 50 378
100 756 111 840 24 182 25 305 4 387 -82 323 -360 599 -693 686 -75 20 -266
33 -322 23z"/>
<path d="M6322 2739 c-345 -44 -594 -371 -552 -726 20 -166 86 -301 204 -410
114 -107 237 -160 391 -170 187 -11 336 47 475 187 134 134 192 273 193 465 1
116 -13 183 -58 280 -120 261 -379 409 -653 374z"/>
</g>

</svg>
