<?xml version="1.0" standalone="no"?>
<!DOCTYPE svg PUBLIC "-//W3C//DTD SVG 20010904//EN"
 "http://www.w3.org/TR/2001/REC-SVG-20010904/DTD/svg10.dtd">
<svg version="1.0" xmlns="http://www.w3.org/2000/svg"
 width="1872.000000pt" height="416.000000pt" viewBox="0 0 1872.000000 416.000000"
 preserveAspectRatio="xMidYMid meet">



<g transform="translate(0.000000,416.000000) scale(0.100000,-0.100000)"
fill="#FF0000" stroke="none">

      <rect x="0" y="0" width="4100" height="4100" fill="white" />

<path d="M10 2085 l0 -2075 2070 0 2070 0 0 2075 0 2075 -2070 0 -2070 0 0
-2075z m2966 725 c194 -50 357 -165 460 -326 36 -56 94 -175 94 -192 0 -5
-229 -141 -510 -303 -280 -162 -508 -298 -507 -304 6 -20 101 -75 164 -95 226
-70 478 32 578 233 19 38 35 77 35 86 1 41 11 42 170 10 85 -16 156 -32 158
-34 2 -1 -11 -45 -28 -97 -86 -256 -276 -438 -537 -513 -414 -120 -834 94
-973 496 -32 90 -40 104 -40 67 0 -41 -39 -157 -76 -228 -87 -167 -229 -281
-424 -341 -62 -20 -97 -24 -205 -24 -153 0 -218 15 -345 77 -69 33 -102 58
-170 127 -92 93 -139 169 -181 296 -23 69 -24 79 -27 548 l-3 477 165 0 166 0
0 -428 c0 -354 3 -438 16 -487 30 -119 103 -207 212 -258 61 -29 76 -32 163
-32 90 0 99 2 171 38 79 38 119 75 162 149 53 90 56 126 56 590 l0 428 165 0
165 0 0 -252 1 -253 27 70 c90 228 313 422 549 479 90 22 255 20 349 -4z"/>


<path d="M2705 2497 c-172 -44 -312 -190 -346 -360 -11 -53 -5 -187 9 -187 3
0 171 95 373 212 234 135 365 216 362 224 -7 20 -103 82 -153 100 -60 21 -183
27 -245 11z"/>
</g>
    <g transform="translate(0.000000,416.000000) scale(0.100000,-0.100000)"
fill="#FFF" stroke="none">


<path d="M7490 3628 c-66 -34 -93 -79 -88 -149 5 -70 35 -114 96 -141 90 -40
194 10 221 107 27 100 -57 205 -164 205 -12 0 -41 -10 -65 -22z"/>
<path d="M11534 3631 c-122 -55 -124 -228 -4 -288 56 -29 96 -29 150 0 50 26
90 90 90 142 0 52 -40 116 -90 142 -52 28 -91 29 -146 4z"/>
<path d="M5080 3158 c0 -479 4 -521 62 -638 41 -85 133 -177 218 -218 271
-133 595 -33 720 221 55 114 60 158 60 635 l0 432 -140 0 -139 0 -3 -437 c-3
-437 -3 -438 -27 -491 -57 -125 -200 -178 -326 -118 -61 28 -87 56 -117 121
-23 49 -23 55 -26 488 l-3 437 -139 0 -140 0 0 -432z"/>
<path d="M12600 3344 l0 -246 -37 32 c-68 60 -115 75 -238 75 -104 0 -114 -2
-177 -33 -118 -58 -218 -192 -247 -330 -48 -232 57 -466 254 -563 65 -32 76
-34 170 -34 93 0 105 2 167 33 37 18 76 45 88 59 l20 26 0 -52 0 -51 135 0
135 0 0 665 0 665 -135 0 -135 0 0 -246z m-151 -400 c164 -48 212 -265 84
-386 -116 -110 -314 -55 -359 100 -39 133 31 261 161 293 46 11 57 10 114 -7z"/>
<path d="M14850 3344 l0 -246 -36 32 c-68 59 -116 74 -239 75 -99 0 -116 -3
-168 -27 -32 -15 -84 -52 -116 -83 -245 -233 -182 -677 116 -818 63 -29 76
-32 168 -32 87 0 107 4 155 26 30 14 70 40 88 56 l32 31 0 -49 0 -49 135 0
135 0 0 665 0 665 -135 0 -135 0 0 -246z m-111 -413 c133 -68 157 -267 44
-373 -116 -110 -314 -55 -360 101 -57 199 135 364 316 272z"/>
<path d="M6749 3196 c-48 -18 -116 -64 -123 -82 -11 -30 -26 -12 -26 31 l0 45
-135 0 -135 0 0 -465 0 -465 135 0 135 0 0 289 0 289 26 32 c31 36 83 64 136
74 84 15 175 -40 197 -119 7 -25 11 -143 11 -302 l0 -263 135 0 135 0 0 294
c0 161 -5 317 -10 347 -24 126 -96 226 -199 276 -46 23 -71 28 -151 30 -63 2
-107 -2 -131 -11z"/>
<path d="M9150 3191 c-153 -49 -265 -161 -312 -314 -27 -91 -22 -244 11 -329
49 -126 153 -228 286 -278 125 -47 310 -34 441 30 62 30 149 111 141 133 -2 6
-47 38 -101 71 l-97 59 -27 -25 c-42 -40 -91 -60 -158 -66 -115 -9 -199 39
-243 138 l-20 45 337 5 337 5 3 75 c6 137 -31 242 -119 335 -55 58 -126 101
-203 121 -72 19 -209 17 -276 -5z m196 -206 c65 -19 134 -91 134 -139 0 -14
-25 -16 -200 -16 -133 0 -200 4 -200 10 0 15 29 72 49 94 27 31 98 62 152 65
8 1 38 -6 65 -14z"/>
<path d="M10294 3191 c-23 -11 -60 -36 -83 -56 l-41 -37 0 46 0 46 -135 0
-135 0 0 -465 0 -465 135 0 135 0 0 285 0 285 42 46 c72 78 134 99 239 81 l46
-8 6 123 c5 92 4 124 -5 130 -26 16 -161 8 -204 -11z"/>
<path d="M10805 3196 c-178 -56 -273 -199 -235 -355 27 -114 103 -167 312
-220 140 -36 176 -53 184 -87 5 -20 1 -32 -20 -52 -24 -24 -35 -27 -111 -31
-95 -3 -195 21 -273 66 -24 14 -45 24 -47 21 -7 -6 -75 -169 -75 -178 0 -14
139 -78 205 -95 89 -23 232 -30 306 -16 171 34 272 142 272 291 0 146 -84 223
-318 291 -177 51 -216 80 -181 134 40 61 179 55 318 -13 l76 -37 38 94 37 94
-29 24 c-34 27 -119 61 -188 74 -69 13 -223 10 -271 -5z"/>
<path d="M13323 3196 c-183 -60 -313 -255 -313 -469 1 -286 211 -503 469 -484
84 6 186 50 221 94 l20 26 0 -52 0 -51 135 0 135 0 0 465 0 465 -135 0 -135 0
0 -46 0 -46 -37 32 c-62 55 -116 74 -223 77 -61 2 -110 -2 -137 -11z m246
-252 c133 -39 197 -196 132 -322 -73 -142 -255 -164 -362 -45 -112 124 -47
334 116 374 46 11 57 10 114 -7z"/>
<path d="M7430 2725 l0 -465 135 0 135 0 0 465 0 465 -135 0 -135 0 0 -465z"/>
<path d="M7812 3182 c1 -5 88 -215 193 -466 l189 -456 116 0 116 0 179 433
c98 237 184 447 192 465 l13 32 -147 0 -148 0 -100 -275 c-55 -151 -102 -275
-105 -275 -3 0 -50 123 -106 273 l-101 272 -147 3 c-85 1 -146 -1 -144 -6z"/>
<path d="M11470 2725 l0 -465 135 0 135 0 0 465 0 465 -135 0 -135 0 0 -465z"/>
<path d="M5090 1255 l0 -665 405 0 405 0 0 135 0 135 -265 0 -265 0 0 140 0
140 235 0 235 0 0 135 0 135 -235 0 -235 0 0 120 0 120 265 0 265 0 0 135 0
135 -405 0 -405 0 0 -665z"/>
<path d="M7559 1527 c-54 -20 -105 -55 -128 -85 l-20 -27 -1 53 0 52 -135 0
-135 0 0 -465 0 -465 135 0 135 0 0 284 0 283 40 46 c58 65 115 90 193 85 34
-3 69 -8 78 -12 14 -6 17 9 23 120 3 70 4 129 1 132 -12 12 -152 11 -186 -1z"/>
<path d="M8133 1526 c-238 -58 -392 -295 -355 -546 35 -245 228 -411 476 -410
152 1 246 39 347 139 100 101 138 195 139 347 0 181 -95 345 -246 426 -103 55
-243 72 -361 44z m245 -279 c84 -55 123 -178 87 -272 -31 -83 -79 -125 -166
-144 -132 -30 -261 78 -261 218 -1 96 46 174 127 213 60 28 159 21 213 -15z"/>
<path d="M9314 1520 c-39 -13 -78 -35 -107 -61 l-47 -41 0 51 0 51 -135 0
-135 0 0 -620 0 -620 135 0 135 0 0 206 0 206 32 -33 c18 -18 58 -44 88 -58
48 -23 68 -26 160 -26 99 0 109 2 173 33 160 79 257 247 257 447 0 143 -43
257 -132 351 -115 121 -269 163 -424 114z m184 -273 c84 -55 123 -178 87 -272
-31 -83 -79 -125 -166 -144 -132 -30 -261 78 -261 218 -1 96 46 174 127 213
60 28 159 21 213 -15z"/>
<path d="M10322 1524 c-144 -38 -262 -148 -314 -292 -26 -70 -35 -216 -18
-295 34 -167 168 -309 334 -353 60 -16 192 -18 255 -3 153 35 312 187 346 329
6 25 4 26 -82 44 -48 9 -98 20 -110 23 -18 4 -25 -2 -38 -34 -48 -115 -188
-178 -317 -142 -37 10 -98 53 -88 62 3 3 143 85 312 182 l307 177 -30 61 c-60
118 -172 210 -294 242 -73 19 -192 18 -263 -1z m207 -215 c21 -6 47 -18 59
-28 21 -16 16 -19 -181 -127 -225 -124 -223 -124 -192 -18 20 70 88 146 148
168 51 18 117 20 166 5z"/>
<path d="M11338 1527 c-272 -77 -408 -428 -273 -703 50 -103 111 -166 203
-211 73 -37 80 -38 181 -38 119 0 166 15 234 75 l37 32 0 -46 0 -46 135 0 135
0 0 465 0 465 -135 0 -135 0 0 -45 0 -46 -37 30 c-88 70 -233 99 -345 68z
m290 -280 c23 -14 54 -48 69 -74 24 -41 28 -59 28 -118 -1 -117 -58 -193 -167
-221 -137 -36 -270 70 -270 215 -1 96 46 174 127 213 60 28 159 21 213 -15z"/>
<path d="M6050 1226 c0 -161 5 -317 10 -347 24 -126 96 -226 199 -277 50 -24
67 -27 161 -27 119 0 162 16 233 83 l37 36 0 -52 0 -52 130 0 130 0 0 465 0
465 -130 0 -130 0 0 -286 c0 -327 2 -318 -90 -368 -45 -24 -60 -28 -114 -24
-70 4 -115 30 -144 81 -15 28 -17 69 -20 315 l-3 282 -135 0 -134 0 0 -294z"/>
<path d="M12560 1050 l0 -470 50 0 50 0 2 358 3 358 160 -355 161 -356 40 -3
41 -3 164 363 164 363 3 -363 2 -362 50 0 50 0 0 470 0 470 -53 0 -53 0 -20
-47 c-84 -195 -339 -732 -345 -726 -4 4 -85 180 -179 391 l-173 382 -58 0 -59
0 0 -470z"/>
<path d="M13826 1055 c-102 -256 -186 -467 -186 -470 0 -3 24 -5 53 -5 l52 0
45 115 45 115 221 0 222 0 44 -112 43 -113 58 -3 58 -3 -14 33 c-7 18 -92 230
-188 470 l-174 438 -46 0 -47 0 -186 -465z m324 77 l86 -217 -174 -3 c-96 -1
-177 -1 -179 1 -2 2 36 104 84 225 48 122 90 219 93 216 3 -3 43 -103 90 -222z"/>
<path d="M14620 1049 l0 -471 198 4 c225 5 264 14 370 92 257 189 234 618 -41
780 -87 51 -167 66 -361 66 l-166 0 0 -471z m437 342 c63 -28 145 -111 175
-178 19 -40 22 -66 23 -158 0 -100 -3 -115 -29 -172 -37 -81 -112 -153 -189
-181 -48 -18 -79 -22 -187 -22 l-130 0 0 371 0 371 143 -4 c122 -3 149 -7 194
-27z"/>
<path d="M15550 1050 l0 -470 50 0 50 0 0 200 0 201 96 -3 96 -3 124 -189 c68
-104 127 -193 132 -198 5 -5 35 -8 66 -6 l57 3 -131 194 c-71 107 -130 198
-130 201 0 4 17 12 38 18 50 15 117 74 145 126 17 32 22 58 22 121 0 98 -28
162 -93 212 -70 53 -121 63 -334 63 l-188 0 0 -470z m413 356 c82 -34 125
-133 92 -212 -40 -97 -81 -114 -265 -114 l-140 0 0 170 0 170 140 0 c96 0 151
-4 173 -14z"/>
<path d="M16380 1050 l0 -470 50 0 50 0 0 470 0 470 -50 0 -50 0 0 -470z"/>
<path d="M16700 1051 l0 -471 178 0 c97 0 197 5 221 11 162 37 303 178 340
340 16 67 13 198 -5 260 -43 144 -142 250 -282 301 -48 18 -86 22 -254 26
l-198 4 0 -471z m453 334 c73 -36 139 -108 168 -183 18 -44 23 -78 23 -153 1
-90 -1 -99 -37 -171 -41 -83 -89 -132 -166 -170 -40 -20 -65 -23 -193 -26
l-148 -4 0 372 0 372 148 -4 c139 -3 150 -5 205 -33z"/>
</g>
</svg>
