<?xml version="1.0" standalone="no"?>
<!DOCTYPE svg PUBLIC "-//W3C//DTD SVG 20010904//EN"
 "http://www.w3.org/TR/2001/REC-SVG-20010904/DTD/svg10.dtd">
<svg version="1.0" xmlns="http://www.w3.org/2000/svg"
 width="162.000000pt" height="159.000000pt" viewBox="0 0 162.000000 159.000000"
 preserveAspectRatio="xMidYMid meet">
 <rect width="200%" height="200%" fill="white"/>

<g transform="translate(0.000000,159.000000) scale(0.100000,-0.100000)"
fill="#ec1616" stroke="none">
<path d="M0 795 l0 -795 810 0 810 0 0 795 0 795 -810 0 -810 0 0 -795z m1227
249 c57 -27 102 -73 134 -136 17 -33 18 -42 7 -49 -7 -5 -93 -55 -190 -110
-98 -56 -178 -106 -178 -110 0 -18 61 -39 111 -39 72 0 130 35 159 96 18 37
26 45 44 40 11 -2 38 -8 59 -11 44 -9 46 -19 12 -85 -52 -102 -141 -160 -259
-168 -128 -7 -238 57 -291 169 l-21 47 -17 -48 c-20 -56 -77 -118 -132 -145
-48 -23 -146 -31 -200 -16 -99 26 -175 111 -195 216 -6 33 -10 125 -8 205 l3
145 62 3 61 3 4 -173 c3 -189 11 -217 70 -261 38 -28 118 -28 155 -1 65 49 68
59 71 255 l4 179 64 0 64 0 0 -82 c1 -82 1 -83 17 -53 74 141 246 198 390 129z"/>
<path d="M1035 932 c-46 -22 -79 -55 -94 -95 -14 -37 -14 -87 0 -87 14 0 257
139 265 151 8 14 -44 41 -89 46 -28 2 -55 -3 -82 -15z"/>
</g>
</svg>
